# xmcd
#
# Track frame offsets: 
#        150
#        13224
#        26151
#        39931
#        54947
#        67394
#        78859
#        93065
#        105978
#        121531
#        132602
#        146190
#        160325
#        173768
#        185434
#        198454
#        211228
#        223755
#        236183
#        248546
#        261907
#        275650
#        288074
#        303253
#        317243
#
# Disc length: 4403 seconds
#
# Revision: 1
# Processed by: cddbd v1.5.2PL0 Copyright (c) Steve Scherf et al.
# Submitted via: ExactAudioCopy v1.0b3
#
DISCID=6a113119
DTITLE=Various Artist - Blues From The Vocalion Vaults CD 2
DYEAR=2014
DGENRE=Blues
TTITLE0=Bukka White - Special Steam Line 
TTITLE1=Memphis Minnie - New Bumble Bee 
TTITLE2=Scrapper Blackwell - Kokomo Blues 
TTITLE3=Blind Willie Johnson - Dark Was The Night (Cold Was The Ground
TTITLE3=) 
TTITLE4=Charley Patton - Hang It On The Wall 
TTITLE5=Furry Lewis - Billy Lyons And Stack O'lee 
TTITLE6=Ada Brown - Panama Limited Blues 
TTITLE7=Blind Boy Fuller - Mamie 
TTITLE8=Ida Cox And Her Allstar Band - Four Day Creep 
TTITLE9=Robert Johnson - Stones In My Passageway 
TTITLE10=Bo Carter - Ram Rod Daddy 
TTITLE11=Cow Cow Davenport - Cow Cow Blues (Take A) 
TTITLE12=Hattie Hart - I Let My Daddy Do That 
TTITLE13=Son Becky - Midnight Trouble Blues 
TTITLE14=Black Boy Shine - Sail On Little Girl No. 3 
TTITLE15=Big Joe Turner and Pete Johnson - Roll 'Em Pete 
TTITLE16=Curtis Jones - Reefer Hound Blues 
TTITLE17=Little Son Joe (Ernest Lawlars) Feat. Memphis Minnie - A.B.C.
TTITLE17=Blues 
TTITLE18=Irene Scruggs - Sorrow Valley Blues 
TTITLE19=Rev. Edward W. Clayborn - Your Enemy Cannot Harm You 
TTITLE20=Jim Jackson - My Monday Blues 
TTITLE21=Bessie Brown - Song from A Cotton Field 
TTITLE22=Jelly Jaw Short - Snake Doctor Blues 
TTITLE23=Bert Mays - Michigan River Blues 
TTITLE24=Blind Joe Taggart - The Storm Is Passing Over 
EXTD=
EXTT0=
EXTT1=
EXTT2=
EXTT3=
EXTT4=
EXTT5=
EXTT6=
EXTT7=
EXTT8=
EXTT9=
EXTT10=
EXTT11=
EXTT12=
EXTT13=
EXTT14=
EXTT15=
EXTT16=
EXTT17=
EXTT18=
EXTT19=
EXTT20=
EXTT21=
EXTT22=
EXTT23=
EXTT24=
PLAYORDER=
